<?xml version="1.0" encoding="UTF-8"?>
<svg xmlns="http://www.w3.org/2000/svg" xmlns:xlink="http://www.w3.org/1999/xlink" width="45pt" height="45pt" viewBox="0 0 45 45" version="1.1">
<g id="surface1">
<path style=" stroke:none;fill-rule:nonzero;fill:rgb(99.215686%,74.901961%,0%);fill-opacity:1;" d="M 14.046875 15.8125 L 10.484375 18.519531 L 7.863281 18.519531 L 4.300781 15.8125 L 5.425781 7.863281 L 12.921875 7.863281 Z M 14.046875 15.8125 "/>
<path style=" stroke:none;fill-rule:nonzero;fill:rgb(100%,56.862745%,0%);fill-opacity:1;" d="M 10.484375 18.519531 L 9.171875 18.519531 L 9.171875 7.863281 L 12.921875 7.863281 L 14.046875 15.8125 Z M 10.484375 18.519531 "/>
<path style=" stroke:none;fill-rule:nonzero;fill:rgb(96.862745%,49.411765%,0%);fill-opacity:1;" d="M 15.726562 27.511719 L 2.621094 27.511719 L 4.300781 15.8125 L 14.046875 15.8125 Z M 15.726562 27.511719 "/>
<path style=" stroke:none;fill-rule:nonzero;fill:rgb(83.529412%,37.254902%,1.960784%);fill-opacity:1;" d="M 15.726562 27.511719 L 9.171875 27.511719 L 9.171875 15.8125 L 14.046875 15.8125 Z M 15.726562 27.511719 "/>
<path style=" stroke:none;fill-rule:nonzero;fill:rgb(89.019608%,93.333333%,100%);fill-opacity:1;" d="M 23.585938 26.382812 L 23.585938 42.109375 L 20.964844 44.730469 L 18.347656 44.730469 L 15.726562 42.109375 L 7.863281 42.109375 L 5.242188 44.730469 L 0 44.730469 L 0 26.382812 Z M 23.585938 26.382812 "/>
<path style=" stroke:none;fill-rule:nonzero;fill:rgb(76.862745%,85.098039%,94.901961%);fill-opacity:1;" d="M 23.585938 26.382812 L 23.585938 42.109375 L 20.964844 44.730469 L 18.347656 44.730469 L 15.726562 42.109375 L 9.171875 42.109375 L 9.171875 26.382812 Z M 23.585938 26.382812 "/>
<path style=" stroke:none;fill-rule:nonzero;fill:rgb(85.490196%,96.078431%,41.176471%);fill-opacity:1;" d="M 18.347656 0 L 18.347656 3.929688 C 18.347656 7.546875 15.410156 10.484375 11.792969 10.484375 L 6.550781 10.484375 C 2.9375 10.484375 0 7.546875 0 3.929688 L 0 0 L 3.929688 0 C 6.082031 0 7.96875 1.046875 9.171875 2.671875 C 10.378906 1.046875 12.265625 0 14.414062 0 Z M 18.347656 0 "/>
<path style=" stroke:none;fill-rule:nonzero;fill:rgb(72.54902%,87.45098%,27.843137%);fill-opacity:1;" d="M 18.347656 0 L 18.347656 3.929688 C 18.347656 7.546875 15.410156 10.484375 11.792969 10.484375 L 9.171875 10.484375 L 9.171875 2.671875 C 10.378906 1.046875 12.265625 0 14.414062 0 Z M 18.347656 0 "/>
<path style=" stroke:none;fill-rule:nonzero;fill:rgb(76.862745%,85.098039%,94.901961%);fill-opacity:1;" d="M 44.730469 31.625 L 44.730469 27.039062 L 31.625 17.210938 L 31.625 25.074219 L 20.964844 17.210938 L 20.964844 44.730469 L 44.730469 44.730469 L 44.730469 39.488281 L 42.109375 36.867188 L 42.109375 34.246094 Z M 44.730469 31.625 "/>
<path style=" stroke:none;fill-rule:nonzero;fill:rgb(35.686275%,33.333333%,33.333333%);fill-opacity:1;" d="M 26.382812 31.625 L 44.730469 31.625 L 44.730469 39.488281 L 26.382812 39.488281 Z M 26.382812 31.625 "/>
<path style=" stroke:none;fill-rule:nonzero;fill:rgb(45.098039%,90.196078%,82.745098%);fill-opacity:1;" d="M 29.003906 34.246094 L 31.625 34.246094 L 31.625 36.867188 L 29.003906 36.867188 Z M 29.003906 34.246094 "/>
<path style=" stroke:none;fill-rule:nonzero;fill:rgb(45.098039%,90.196078%,82.745098%);fill-opacity:1;" d="M 34.246094 34.246094 L 36.867188 34.246094 L 36.867188 36.867188 L 34.246094 36.867188 Z M 34.246094 34.246094 "/>
<path style=" stroke:none;fill-rule:nonzero;fill:rgb(45.098039%,90.196078%,82.745098%);fill-opacity:1;" d="M 39.488281 34.246094 L 42.109375 34.246094 L 42.109375 36.867188 L 39.488281 36.867188 Z M 39.488281 34.246094 "/>
<path style=" stroke:none;fill-rule:nonzero;fill:rgb(46.27451%,43.137255%,43.137255%);fill-opacity:1;" d="M 18.347656 31.625 L 18.347656 44.730469 L 15.726562 44.730469 L 13.105469 42.109375 L 10.484375 42.109375 L 7.863281 44.730469 L 5.242188 44.730469 L 5.242188 31.625 Z M 18.347656 31.625 "/>
<path style=" stroke:none;fill-rule:nonzero;fill:rgb(35.686275%,33.333333%,33.333333%);fill-opacity:1;" d="M 9.171875 31.625 L 18.347656 31.625 L 18.347656 44.730469 L 15.726562 44.730469 L 13.105469 42.109375 L 10.484375 42.109375 L 9.171875 43.417969 Z M 9.171875 31.625 "/>
<path style=" stroke:none;fill-rule:nonzero;fill:rgb(45.098039%,90.196078%,82.745098%);fill-opacity:1;" d="M 7.863281 34.246094 L 15.726562 34.246094 L 15.726562 44.730469 L 7.863281 44.730469 Z M 7.863281 34.246094 "/>
<path style=" stroke:none;fill-rule:nonzero;fill:rgb(45.098039%,90.196078%,82.745098%);fill-opacity:1;" d="M 9.171875 34.246094 L 15.726562 34.246094 L 15.726562 44.730469 L 9.171875 44.730469 Z M 9.171875 34.246094 "/>
</g>
</svg>
